<?xml version="1.0" encoding="utf-8"?>
<!-- Generator: Adobe Illustrator 22.1.0, SVG Export Plug-In . SVG Version: 6.00 Build 0)  -->
<svg version="1.1" id="Layer_1" xmlns="http://www.w3.org/2000/svg" xmlns:xlink="http://www.w3.org/1999/xlink" x="0px" y="0px"
	 viewBox="0 0 135 40" style="enable-background:new 0 0 135 40;" xml:space="preserve">
<style type="text/css">
	.st0{fill:#FFFFFF;}
	.st1{fill:#A6A6A6;}
</style>
<g>
	<path class="st0" d="M134,35.3c0,2.1-1.7,3.8-3.8,3.8H4.7c-2.1,0-3.8-1.7-3.8-3.8V4.7c0-2.1,1.7-3.8,3.8-3.8h125.5
		c2.1,0,3.8,1.7,3.8,3.8L134,35.3L134,35.3z"/>
	<path class="st1" d="M130.2,40H4.7C2.1,40,0,37.9,0,35.3V4.7C0,2.1,2.1,0,4.7,0h125.5c2.6,0,4.7,2.1,4.7,4.7v30.5
		C134.9,37.9,132.8,40,130.2,40L130.2,40z"/>
	<path d="M134,35.3c0,2.1-1.7,3.8-3.8,3.8H4.7c-2.1,0-3.8-1.7-3.8-3.8V4.7c0-2.1,1.7-3.8,3.8-3.8h125.5c2.1,0,3.8,1.7,3.8,3.8
		L134,35.3L134,35.3z"/>
	<path class="st0" d="M30.1,19.8c0-3.2,2.6-4.8,2.8-4.9c-1.5-2.2-3.9-2.5-4.7-2.5c-2-0.2-3.9,1.2-4.9,1.2c-1,0-2.6-1.2-4.2-1.1
		c-2.1,0-4.1,1.3-5.2,3.2c-2.3,3.9-0.6,9.7,1.6,12.9c1.1,1.6,2.4,3.3,4,3.2c1.6-0.1,2.2-1,4.2-1c1.9,0,2.5,1,4.2,1
		c1.7,0,2.8-1.6,3.9-3.1c1.3-1.8,1.8-3.5,1.8-3.6C33.5,24.9,30.2,23.6,30.1,19.8z"/>
	<path class="st0" d="M26.9,10.3c0.9-1.1,1.5-2.6,1.3-4.1c-1.3,0.1-2.8,0.9-3.8,1.9c-0.8,0.9-1.5,2.5-1.3,3.9
		C24.6,12.2,26,11.4,26.9,10.3z"/>
	<g>
		<path class="st0" d="M53.7,31.5h-2.3l-1.2-3.9h-4.3l-1.2,3.9h-2.2l4.3-13.3h2.6L53.7,31.5z M49.8,26l-1.1-3.5
			c-0.1-0.4-0.3-1.2-0.7-2.5h0c-0.1,0.6-0.3,1.4-0.6,2.5L46.2,26H49.8z"/>
		<path class="st0" d="M64.7,26.6c0,1.6-0.4,2.9-1.3,3.9c-0.8,0.8-1.8,1.3-3,1.3c-1.3,0-2.2-0.5-2.7-1.4v5h-2.1V25.1
			c0-1,0-2.1-0.1-3.2h1.9l0.1,1.5h0c0.7-1.1,1.8-1.7,3.2-1.7c1.1,0,2.1,0.4,2.8,1.3C64.3,23.9,64.7,25.1,64.7,26.6z M62.5,26.7
			c0-0.9-0.2-1.7-0.6-2.3c-0.5-0.6-1.1-0.9-1.9-0.9c-0.5,0-1,0.2-1.4,0.5c-0.4,0.4-0.7,0.8-0.8,1.4c-0.1,0.3-0.1,0.5-0.1,0.6v1.6
			c0,0.7,0.2,1.3,0.6,1.8c0.4,0.5,1,0.7,1.7,0.7c0.8,0,1.4-0.3,1.9-0.9C62.3,28.5,62.5,27.7,62.5,26.7z"/>
		<path class="st0" d="M75.7,26.6c0,1.6-0.4,2.9-1.3,3.9c-0.8,0.8-1.8,1.3-3,1.3c-1.3,0-2.2-0.5-2.7-1.4v5h-2.1V25.1
			c0-1,0-2.1-0.1-3.2h1.9l0.1,1.5h0c0.7-1.1,1.8-1.7,3.2-1.7c1.1,0,2.1,0.4,2.8,1.3C75.3,23.9,75.7,25.1,75.7,26.6z M73.5,26.7
			c0-0.9-0.2-1.7-0.6-2.3c-0.5-0.6-1.1-0.9-1.9-0.9c-0.5,0-1,0.2-1.4,0.5c-0.4,0.4-0.7,0.8-0.8,1.4c-0.1,0.3-0.1,0.5-0.1,0.6v1.6
			c0,0.7,0.2,1.3,0.6,1.8c0.4,0.5,1,0.7,1.7,0.7c0.8,0,1.4-0.3,1.9-0.9C73.3,28.5,73.5,27.7,73.5,26.7z"/>
		<path class="st0" d="M88,27.8c0,1.1-0.4,2.1-1.2,2.8c-0.9,0.8-2.1,1.2-3.6,1.2c-1.4,0-2.6-0.3-3.4-0.8l0.5-1.8
			c0.9,0.6,2,0.8,3.1,0.8c0.8,0,1.4-0.2,1.9-0.5c0.4-0.4,0.7-0.8,0.7-1.5c0-0.5-0.2-1-0.6-1.4c-0.4-0.4-1-0.7-1.8-1
			c-2.3-0.9-3.5-2.1-3.5-3.8c0-1.1,0.4-2,1.2-2.7c0.8-0.7,1.9-1,3.3-1c1.2,0,2.2,0.2,3,0.6L87,20.4c-0.8-0.4-1.6-0.6-2.6-0.6
			c-0.8,0-1.3,0.2-1.8,0.6c-0.4,0.3-0.5,0.7-0.5,1.2c0,0.5,0.2,1,0.6,1.3c0.4,0.3,1,0.7,1.9,1c1.1,0.5,2,1,2.5,1.6
			C87.8,26.1,88,26.9,88,27.8z"/>
		<path class="st0" d="M95.1,23.5h-2.3v4.7c0,1.2,0.4,1.8,1.2,1.8c0.4,0,0.7,0,0.9-0.1l0.1,1.6c-0.4,0.2-1,0.2-1.7,0.2
			c-0.8,0-1.5-0.3-2-0.8c-0.5-0.5-0.7-1.4-0.7-2.6v-4.8h-1.4v-1.6h1.4v-1.8l2.1-0.6v2.4h2.3C95.1,21.9,95.1,23.5,95.1,23.5z"/>
		<path class="st0" d="M105.7,26.6c0,1.5-0.4,2.7-1.3,3.6c-0.9,1-2.1,1.5-3.5,1.5c-1.4,0-2.5-0.5-3.4-1.4c-0.8-0.9-1.3-2.1-1.3-3.5
			c0-1.5,0.4-2.7,1.3-3.7c0.9-0.9,2-1.4,3.5-1.4c1.4,0,2.5,0.5,3.4,1.4C105.3,24,105.7,25.2,105.7,26.6z M103.5,26.7
			c0-0.9-0.2-1.6-0.6-2.3c-0.4-0.8-1.1-1.1-1.9-1.1c-0.9,0-1.5,0.4-2,1.1c-0.4,0.6-0.6,1.4-0.6,2.3c0,0.9,0.2,1.6,0.6,2.3
			c0.5,0.8,1.1,1.1,1.9,1.1c0.8,0,1.5-0.4,1.9-1.2C103.3,28.3,103.5,27.6,103.5,26.7z"/>
		<path class="st0" d="M112.6,23.8c-0.2,0-0.4-0.1-0.7-0.1c-0.8,0-1.3,0.3-1.7,0.9c-0.4,0.5-0.5,1.1-0.5,1.9v5h-2.1v-6.6
			c0-1.1,0-2.1-0.1-3h1.9l0.1,1.8h0.1c0.2-0.6,0.6-1.1,1.1-1.5c0.5-0.3,1-0.5,1.5-0.5c0.2,0,0.4,0,0.5,0L112.6,23.8L112.6,23.8z"/>
		<path class="st0" d="M122.2,26.3c0,0.4,0,0.7-0.1,1h-6.4c0,0.9,0.3,1.7,0.9,2.2c0.5,0.4,1.2,0.7,2.1,0.7c0.9,0,1.8-0.1,2.6-0.5
			l0.3,1.5c-0.9,0.4-2,0.6-3.2,0.6c-1.5,0-2.7-0.4-3.5-1.3c-0.8-0.9-1.3-2.1-1.3-3.5c0-1.4,0.4-2.7,1.2-3.6c0.8-1,1.9-1.5,3.4-1.5
			c1.4,0,2.4,0.5,3.1,1.5C121.9,24,122.2,25.1,122.2,26.3z M120.1,25.7c0-0.6-0.1-1.2-0.4-1.6c-0.4-0.6-0.9-0.9-1.7-0.9
			c-0.7,0-1.3,0.3-1.7,0.9c-0.4,0.5-0.6,1-0.6,1.7L120.1,25.7L120.1,25.7z"/>
	</g>
	<g>
		<path class="st0" d="M48.7,13.4h-1.1L47,11.5h-2.1l-0.6,1.9h-1.1l2.1-6.5h1.3L48.7,13.4z M46.8,10.7L46.3,9
			c-0.1-0.2-0.2-0.6-0.3-1.2h0C45.9,8,45.8,8.5,45.6,9l-0.5,1.7H46.8z"/>
		<path class="st0" d="M54,8.7l-1.8,4.7h-1l-1.7-4.7h1.1l0.8,2.5c0.1,0.4,0.3,0.8,0.3,1.2h0c0.1-0.3,0.2-0.7,0.3-1.2l0.8-2.5
			C52.9,8.7,54,8.7,54,8.7z"/>
		<path class="st0" d="M57.8,13.4l-0.1-0.5h0c-0.3,0.4-0.8,0.6-1.4,0.6c-0.8,0-1.4-0.6-1.4-1.4c0-1.2,1-1.8,2.8-1.8v-0.1
			c0-0.6-0.3-0.9-1-0.9c-0.5,0-0.9,0.1-1.2,0.4L55.2,9c0.4-0.3,1-0.4,1.6-0.4c1.2,0,1.9,0.6,1.9,2v1.7c0,0.5,0,0.8,0.1,1.1
			L57.8,13.4L57.8,13.4z M57.7,11.1c-1.2,0-1.7,0.3-1.7,1c0,0.5,0.3,0.7,0.7,0.7c0.5,0,1-0.4,1-1C57.7,11.8,57.7,11.1,57.7,11.1z"/>
		<path class="st0" d="M61,7.9c-0.3,0-0.6-0.3-0.6-0.6s0.3-0.6,0.6-0.6c0.4,0,0.7,0.3,0.6,0.6C61.7,7.7,61.4,7.9,61,7.9z M61.6,13.4
			h-1V8.7h1V13.4z"/>
		<path class="st0" d="M64.5,13.4h-1V6.6h1V13.4z"/>
		<path class="st0" d="M68.9,13.4l-0.1-0.5h0c-0.3,0.4-0.8,0.6-1.4,0.6c-0.8,0-1.4-0.6-1.4-1.4c0-1.2,1-1.8,2.8-1.8v-0.1
			c0-0.6-0.3-0.9-1-0.9c-0.5,0-0.9,0.1-1.2,0.4L66.3,9c0.4-0.3,1-0.4,1.6-0.4c1.2,0,1.9,0.6,1.9,2v1.7c0,0.5,0,0.8,0.1,1.1H68.9z
			 M68.8,11.1c-1.2,0-1.7,0.3-1.7,1c0,0.5,0.3,0.7,0.7,0.7c0.5,0,1-0.4,1-1V11.1z"/>
		<path class="st0" d="M74.1,13.5c-0.7,0-1.2-0.3-1.5-0.8h0l-0.1,0.7h-0.9c0-0.4,0-0.8,0-1.3V6.6h1v2.9h0c0.3-0.5,0.8-0.8,1.5-0.8
			c1.1,0,1.9,1,1.9,2.4C76.1,12.5,75.3,13.5,74.1,13.5z M73.8,9.4c-0.6,0-1.2,0.5-1.2,1.3v0.8c0,0.6,0.5,1.2,1.1,1.2
			c0.8,0,1.3-0.6,1.3-1.7C75.1,10.1,74.6,9.4,73.8,9.4z"/>
		<path class="st0" d="M78.7,13.4h-1V6.6h1V13.4z"/>
		<path class="st0" d="M84.4,11.3h-3.1c0,0.9,0.6,1.4,1.5,1.4c0.5,0,0.9-0.1,1.3-0.2l0.2,0.7c-0.4,0.2-1,0.3-1.6,0.3
			c-1.5,0-2.3-0.9-2.3-2.4c0-1.4,0.9-2.5,2.2-2.5c1.2,0,2,0.9,2,2.2C84.5,11,84.5,11.2,84.4,11.3z M83.5,10.6c0-0.7-0.4-1.2-1-1.2
			c-0.6,0-1.1,0.5-1.1,1.2H83.5z"/>
		<path class="st0" d="M90.8,13.5c-1.4,0-2.3-1-2.3-2.4c0-1.5,0.9-2.5,2.3-2.5c1.4,0,2.3,1,2.3,2.4C93.1,12.5,92.2,13.5,90.8,13.5z
			 M90.8,9.4c-0.8,0-1.2,0.7-1.2,1.7c0,1,0.5,1.7,1.2,1.7s1.2-0.8,1.2-1.7C92.1,10.1,91.6,9.4,90.8,9.4z"/>
		<path class="st0" d="M98.8,13.4h-1v-2.7c0-0.8-0.3-1.3-1-1.3c-0.6,0-1,0.5-1,1.2v2.8h-1v-3.4c0-0.4,0-0.9,0-1.3h0.9l0,0.7h0
			c0.3-0.5,0.9-0.8,1.5-0.8c1,0,1.6,0.8,1.6,2L98.8,13.4L98.8,13.4z"/>
		<path class="st0" d="M105.6,9.5h-1.2v2.3c0,0.6,0.2,0.9,0.6,0.9c0.2,0,0.3,0,0.5,0l0,0.8c-0.2,0.1-0.5,0.1-0.8,0.1
			c-0.8,0-1.3-0.5-1.3-1.6V9.5h-0.7V8.7h0.7V7.9l1-0.3v1.2h1.2V9.5z"/>
		<path class="st0" d="M111.2,13.4h-1v-2.7c0-0.8-0.3-1.3-1-1.3c-0.5,0-1,0.4-1,1.1v2.8h-1V6.6h1v2.8h0c0.3-0.5,0.8-0.8,1.4-0.8
			c1,0,1.6,0.8,1.6,2V13.4z"/>
		<path class="st0" d="M116.5,11.3h-3.1c0,0.9,0.6,1.4,1.5,1.4c0.5,0,0.9-0.1,1.3-0.2l0.2,0.7c-0.4,0.2-1,0.3-1.6,0.3
			c-1.5,0-2.3-0.9-2.3-2.4c0-1.4,0.9-2.5,2.2-2.5c1.2,0,2,0.9,2,2.2C116.6,11,116.6,11.2,116.5,11.3z M115.6,10.6
			c0-0.7-0.4-1.2-1-1.2c-0.6,0-1.1,0.5-1.1,1.2H115.6z"/>
	</g>
</g>
</svg>
