<?xml version="1.0" encoding="utf-8"?>
<!-- Generator: Adobe Illustrator 22.1.0, SVG Export Plug-In . SVG Version: 6.00 Build 0)  -->
<svg version="1.1" id="Layer_1" xmlns="http://www.w3.org/2000/svg" xmlns:xlink="http://www.w3.org/1999/xlink" x="0px" y="0px"
	 viewBox="0 0 493.7 457.9" style="enable-background:new 0 0 493.7 457.9;" xml:space="preserve">
<g>
	<path d="M456.1,0h-13.9h-7.7H39.8C11.8,0,0.1,11.6,0.1,39.5C0,137.4,0,235.3,0.1,333.1c0,27.6,11.3,39.1,38.7,39.1
		c52.2,0.1,104.4,0.1,156.6,0c-0.2,2.9-0.4,5.9-0.6,8.8c-0.6,8.6-0.9,17.3-2.1,25.9c-0.3,2.5-0.9,4.9-1.8,7.1
		c-2.5,7.6-7.5,13.8-14.7,18.3c-2.7,1.7-5.4,3.3-8,4.9c-4.7,2.8-9.5,5.6-14.1,8.5c-2.1,1.3-4.1,3.2-5.1,5.3
		c-1.6,3.4-0.1,5.9,3.8,6.6c1.3,0.2,2.5,0,3.8,0c60.8,0,121.6,0.1,182.3,0c3.3,0,7.5,1.2,8.5-3.5c0.8-4.2-2.2-6.5-5.4-8.5
		c-4.9-2.9-9.9-5.9-14.8-8.9c-1.8-1.2-3.7-2.3-5.5-3.4c-7.6-4.5-12.9-10.5-15.8-17.9c-1.5-3.6-2.3-7.6-2.7-12
		c-0.7-10.3-1.6-20.7-2.4-31.4h155.6c25.8,0,37.6-12,37.6-38v-297C493.6,12.4,481.1,0,456.1,0z M265.3,344.2
		c-3.9,6.8-11.1,11.4-18.9,11.1c-7.8-0.3-14.4-4.7-17.9-11.1c-1.8-3.2-2.8-7-2.8-11c0.2-11.8,9.6-21.4,21.2-21.5
		c12,0,21.4,10,21.1,22.6C267.9,337.8,266.9,341.2,265.3,344.2z M453.2,293.4c-137.2-0.3-274.3-0.2-411.5-0.2
		c-14.2,0-14.7-0.5-14.7-14.9V44.1c0-16.7,0.2-16.7,17.3-16.7c49.5-0.1,322.3-0.1,390.2-0.1h7.7h9.2c14.5,0,15.2,0.6,15.2,14.6
		c0.1,79.2-0.1,158.4,0.3,237.5C466.9,289.6,464,293.4,453.2,293.4z"/>
</g>
</svg>
