<?xml version="1.0" encoding="utf-8"?>
<!-- Generator: Adobe Illustrator 22.1.0, SVG Export Plug-In . SVG Version: 6.00 Build 0)  -->
<svg version="1.1" id="Layer_1" xmlns="http://www.w3.org/2000/svg" xmlns:xlink="http://www.w3.org/1999/xlink" x="0px" y="0px"
	 viewBox="0 0 50.8 98.2" style="enable-background:new 0 0 50.8 98.2;" xml:space="preserve">
<path d="M43.3,0H7.5C3.4,0,0,3.4,0,7.5v83.2c0,4.1,3.4,7.5,7.5,7.5h35.8c4.1,0,7.5-3.4,7.5-7.5V7.5C50.8,3.4,47.4,0,43.3,0z
	 M33.9,5.9h0.8c0.8,0,1.5,0.7,1.5,1.5s-0.7,1.5-1.5,1.5h-0.8c-0.8,0-1.5-0.7-1.5-1.5S33,5.9,33.9,5.9z M18.4,5.9h10.8
	c0.8,0,1.5,0.7,1.5,1.5s-0.7,1.5-1.5,1.5H18.4c-0.8,0-1.5-0.7-1.5-1.5S17.5,5.9,18.4,5.9z M25.4,94.9c-2.5,0-4.4-2-4.4-4.4
	c0-2.5,2-4.5,4.4-4.5c2.5,0,4.5,2,4.5,4.5C29.8,93,27.9,94.9,25.4,94.9z M46.3,83.4H4.5V14.9h41.8L46.3,83.4L46.3,83.4z
	 M489.7-438.9h5.8v1.4c0,2.1,1.7,3.7,3.7,3.7c2.1,0,3.7-1.7,3.7-3.7v-1.4h5.8c0.8,0,1.5-0.7,1.5-1.5c0-1-0.2-2.3-1.3-3.3
	c-0.5-0.5-1.6-1.9-1.7-3.7c0-0.5-0.1-1-0.1-1.5c-0.2-3.1-0.4-5.7-1.7-7.7c-1.1-1.6-2.4-2.6-4-3c-0.4-0.9-1.2-1.5-2.2-1.5
	s-1.8,0.6-2.2,1.5c-1.7,0.4-3,1.4-4,3c-1.3,2-1.5,4.6-1.7,7.7c0,0.5-0.1,1-0.1,1.5c-0.1,1.8-1.2,3.2-1.7,3.7
	c-0.8,0.7-1.3,1.9-1.3,3.3C488.2-439.5,488.9-438.9,489.7-438.9z M500-437.5c0,0.4-0.3,0.7-0.7,0.7s-0.7-0.3-0.7-0.7v-1.4h1.5
	V-437.5z M494.2-447c0-0.5,0.1-1,0.1-1.5c0.2-2.8,0.4-5,1.2-6.3c0.9-1.4,1.9-1.9,3.6-1.9c0,0,0.1,0,0.1,0c1.8,0,2.8,0.5,3.7,1.9
	c0.9,1.3,1,3.5,1.2,6.3c0,0.5,0.1,1,0.1,1.5c0.2,2.2,1.3,4.1,2.3,5.2h-14.8C492.9-443,494-444.8,494.2-447z"/>
</svg>
